G04 #@! TF.FileFunction,Copper,L1,Top,Signal*
%FSLAX46Y46*%
G04 Gerber Fmt 4.6, Leading zero omitted, Abs format (unit mm)*
G04 Created by KiCad (PCBNEW 4.0.7) date 04/15/20 11:27:54*
%MOMM*%
%LPD*%
G01*
G04 APERTURE LIST*
%ADD10C,0.100000*%
%ADD11R,1.450000X0.450000*%
%ADD12R,3.000000X4.200000*%
%ADD13R,0.600000X0.500000*%
%ADD14R,0.500000X0.600000*%
%ADD15R,0.850000X0.850000*%
%ADD16O,0.850000X0.850000*%
%ADD17R,0.600000X0.400000*%
%ADD18R,0.400000X0.600000*%
%ADD19C,0.600000*%
%ADD20C,0.250000*%
G04 APERTURE END LIST*
D10*
D11*
X144180000Y-100643000D03*
X144180000Y-101293000D03*
X144180000Y-101943000D03*
X144180000Y-102593000D03*
X144180000Y-103243000D03*
X144180000Y-103893000D03*
X144180000Y-104543000D03*
X144180000Y-105193000D03*
X144180000Y-105843000D03*
X144180000Y-106493000D03*
X150080000Y-106493000D03*
X150080000Y-105843000D03*
X150080000Y-105193000D03*
X150080000Y-104543000D03*
X150080000Y-103893000D03*
X150080000Y-103243000D03*
X150080000Y-102593000D03*
X150080000Y-101943000D03*
X150080000Y-101293000D03*
X150080000Y-100643000D03*
D12*
X147130000Y-103568000D03*
D13*
X155261000Y-103632000D03*
X154161000Y-103632000D03*
D14*
X153492000Y-100694000D03*
X153492000Y-101794000D03*
D15*
X137858000Y-101156000D03*
D16*
X137858000Y-102156000D03*
X137858000Y-103156000D03*
X137858000Y-104156000D03*
X137858000Y-105156000D03*
X137858000Y-106156000D03*
X137858000Y-107156000D03*
X137858000Y-108156000D03*
D15*
X154610000Y-106629000D03*
D16*
X154610000Y-107629000D03*
D17*
X155270000Y-100794000D03*
X155270000Y-101694000D03*
D18*
X140202000Y-100965000D03*
X141102000Y-100965000D03*
X140202000Y-102172000D03*
X141102000Y-102172000D03*
X140266000Y-103505000D03*
X141166000Y-103505000D03*
X140266000Y-105689000D03*
X141166000Y-105689000D03*
X143543000Y-108280000D03*
X144443000Y-108280000D03*
X145448000Y-108356000D03*
X146348000Y-108356000D03*
X147657000Y-108483000D03*
X148557000Y-108483000D03*
X149791000Y-108560000D03*
X150691000Y-108560000D03*
D19*
X147094600Y-106889200D03*
X148989300Y-107074700D03*
D20*
X155270000Y-103623000D02*
X155265500Y-103627500D01*
X155265500Y-103627500D02*
X155261000Y-103632000D01*
X155265500Y-102223800D02*
X155270000Y-102219300D01*
X155265500Y-103627500D02*
X155265500Y-102223800D01*
X155270000Y-101694000D02*
X155270000Y-102219300D01*
X144442600Y-102593000D02*
X144442600Y-101943000D01*
X144180000Y-101943000D02*
X144311300Y-101943000D01*
X144311300Y-101943000D02*
X144442600Y-101943000D01*
X144311300Y-101943000D02*
X144311300Y-101293000D01*
X144180000Y-101293000D02*
X144311300Y-101293000D01*
X144180000Y-102593000D02*
X144311300Y-102593000D01*
X144180000Y-103243000D02*
X145230300Y-103243000D01*
X144311300Y-102593000D02*
X144442600Y-102593000D01*
X145230300Y-102830200D02*
X145230300Y-103243000D01*
X144993100Y-102593000D02*
X145230300Y-102830200D01*
X144442600Y-102593000D02*
X144993100Y-102593000D01*
X145230300Y-105193000D02*
X145230300Y-103243000D01*
X144180000Y-105193000D02*
X145230300Y-105193000D01*
X144311300Y-100774300D02*
X144311300Y-101293000D01*
X144180000Y-100643000D02*
X144311300Y-100774300D01*
X144180000Y-100643000D02*
X145230300Y-100643000D01*
X154161000Y-103632000D02*
X154161000Y-104207300D01*
X150080000Y-103243000D02*
X149029700Y-103243000D01*
X148982800Y-100643000D02*
X145230300Y-100643000D01*
X148982800Y-100280000D02*
X148982800Y-100643000D01*
X149235400Y-100027400D02*
X148982800Y-100280000D01*
X155528600Y-100027400D02*
X149235400Y-100027400D01*
X155953600Y-100452400D02*
X155528600Y-100027400D01*
X155953600Y-104013100D02*
X155953600Y-100452400D01*
X155759400Y-104207300D02*
X155953600Y-104013100D01*
X154161000Y-104207300D02*
X155759400Y-104207300D01*
X150080000Y-105193000D02*
X149029700Y-105193000D01*
X148982800Y-103196100D02*
X149029700Y-103243000D01*
X148982800Y-100643000D02*
X148982800Y-103196100D01*
X149029700Y-103243000D02*
X149029700Y-105193000D01*
X154067300Y-102963000D02*
X154161000Y-103056700D01*
X154067300Y-101794000D02*
X154067300Y-102963000D01*
X153492000Y-101794000D02*
X154067300Y-101794000D01*
X154161000Y-103632000D02*
X154161000Y-103056700D01*
X153492000Y-100694500D02*
X153492000Y-100694000D01*
X153516500Y-100719000D02*
X153492000Y-100694500D01*
X153441000Y-100644000D02*
X153516500Y-100719000D01*
X153592000Y-100794000D02*
X155270000Y-100794000D01*
X153516500Y-100719000D02*
X153592000Y-100794000D01*
X153440000Y-100643000D02*
X153441000Y-100644000D01*
X150080000Y-100643000D02*
X153440000Y-100643000D01*
X138799300Y-100965000D02*
X138608300Y-101156000D01*
X140202000Y-100965000D02*
X138799300Y-100965000D01*
X137858000Y-101156000D02*
X138608300Y-101156000D01*
X138624300Y-102172000D02*
X138608300Y-102156000D01*
X140202000Y-102172000D02*
X138624300Y-102172000D01*
X137858000Y-102156000D02*
X138608300Y-102156000D01*
X139391700Y-103156000D02*
X137858000Y-103156000D01*
X139740700Y-103505000D02*
X139391700Y-103156000D01*
X140266000Y-103505000D02*
X139740700Y-103505000D01*
X138608300Y-104556600D02*
X138608300Y-104156000D01*
X139740700Y-105689000D02*
X138608300Y-104556600D01*
X140266000Y-105689000D02*
X139740700Y-105689000D01*
X137858000Y-104156000D02*
X138608300Y-104156000D01*
X138472400Y-105156000D02*
X137858000Y-105156000D01*
X141596400Y-108280000D02*
X138472400Y-105156000D01*
X143017700Y-108280000D02*
X141596400Y-108280000D01*
X143543000Y-108280000D02*
X143017700Y-108280000D01*
X144888200Y-108915800D02*
X145448000Y-108356000D01*
X141368100Y-108915800D02*
X144888200Y-108915800D01*
X138608300Y-106156000D02*
X141368100Y-108915800D01*
X137858000Y-106156000D02*
X138608300Y-106156000D01*
X147657000Y-108483000D02*
X147131700Y-108483000D01*
X147131700Y-108614300D02*
X147131700Y-108483000D01*
X146363200Y-109382800D02*
X147131700Y-108614300D01*
X140835100Y-109382800D02*
X146363200Y-109382800D01*
X138608300Y-107156000D02*
X140835100Y-109382800D01*
X137858000Y-107156000D02*
X138608300Y-107156000D01*
X140312200Y-109859900D02*
X138608300Y-108156000D01*
X148491100Y-109859900D02*
X140312200Y-109859900D01*
X149791000Y-108560000D02*
X148491100Y-109859900D01*
X137858000Y-108156000D02*
X138608300Y-108156000D01*
X150080000Y-101293000D02*
X151130300Y-101293000D01*
X154610000Y-106629000D02*
X154610000Y-105878700D01*
X151580600Y-101743300D02*
X151130300Y-101293000D01*
X151580600Y-102849300D02*
X151580600Y-101743300D01*
X154610000Y-105878700D02*
X151580600Y-102849300D01*
X153859700Y-105875400D02*
X153859700Y-107629000D01*
X151130300Y-103146000D02*
X153859700Y-105875400D01*
X151130300Y-101943000D02*
X151130300Y-103146000D01*
X150080000Y-101943000D02*
X151130300Y-101943000D01*
X154610000Y-107629000D02*
X153859700Y-107629000D01*
X144171000Y-103902500D02*
X144180000Y-103894000D01*
X144180000Y-103893500D02*
X144180000Y-103893000D01*
X144171000Y-103902500D02*
X144180000Y-103893500D01*
X144162000Y-103911000D02*
X144171000Y-103902500D01*
X143436500Y-103911000D02*
X144162000Y-103911000D01*
X141627300Y-102101800D02*
X143436500Y-103911000D01*
X141627300Y-100965000D02*
X141627300Y-102101800D01*
X141102000Y-100965000D02*
X141627300Y-100965000D01*
X143129700Y-104428300D02*
X143129700Y-104543000D01*
X141498700Y-102797300D02*
X143129700Y-104428300D01*
X141102000Y-102797300D02*
X141498700Y-102797300D01*
X141102000Y-102172000D02*
X141102000Y-102797300D01*
X144180000Y-104543000D02*
X143129700Y-104543000D01*
X142878700Y-105843000D02*
X144180000Y-105843000D01*
X141166000Y-104130300D02*
X142878700Y-105843000D01*
X141166000Y-103505000D02*
X141166000Y-104130300D01*
X142495300Y-106493000D02*
X144180000Y-106493000D01*
X141691300Y-105689000D02*
X142495300Y-106493000D01*
X141166000Y-105689000D02*
X141691300Y-105689000D01*
X150080000Y-106493000D02*
X149029700Y-106493000D01*
X149029700Y-107034300D02*
X148989300Y-107074700D01*
X149029700Y-106493000D02*
X149029700Y-107034300D01*
X145833800Y-106889200D02*
X147094600Y-106889200D01*
X144443000Y-108280000D02*
X145833800Y-106889200D01*
X146516700Y-108356000D02*
X149029700Y-105843000D01*
X146348000Y-108356000D02*
X146516700Y-108356000D01*
X150080000Y-105843000D02*
X149029700Y-105843000D01*
X151130300Y-106855100D02*
X151130300Y-104543000D01*
X150460000Y-107525400D02*
X151130300Y-106855100D01*
X149777300Y-107525400D02*
X150460000Y-107525400D01*
X149082300Y-108220400D02*
X149777300Y-107525400D01*
X149082300Y-108483000D02*
X149082300Y-108220400D01*
X148557000Y-108483000D02*
X149082300Y-108483000D01*
X150080000Y-104543000D02*
X151130300Y-104543000D01*
X150691000Y-108560000D02*
X151216300Y-108560000D01*
X150080000Y-103893000D02*
X151130300Y-103893000D01*
X151594500Y-104357200D02*
X151130300Y-103893000D01*
X151594500Y-108181800D02*
X151594500Y-104357200D01*
X151216300Y-108560000D02*
X151594500Y-108181800D01*
M02*
