G04 #@! TF.FileFunction,Legend,Top*
%FSLAX46Y46*%
G04 Gerber Fmt 4.6, Leading zero omitted, Abs format (unit mm)*
G04 Created by KiCad (PCBNEW 4.0.7) date 04/15/20 11:27:54*
%MOMM*%
%LPD*%
G01*
G04 APERTURE LIST*
%ADD10C,0.100000*%
%ADD11C,0.150000*%
%ADD12C,0.120000*%
G04 APERTURE END LIST*
D10*
D11*
X144905000Y-107018000D02*
X149355000Y-107018000D01*
X143380000Y-100118000D02*
X149355000Y-100118000D01*
D12*
X154461000Y-104102000D02*
X154961000Y-104102000D01*
X154961000Y-103162000D02*
X154461000Y-103162000D01*
X153962000Y-101494000D02*
X153962000Y-100994000D01*
X153022000Y-100994000D02*
X153022000Y-101494000D01*
X137163000Y-108716000D02*
X137463507Y-108716000D01*
X138252493Y-108716000D02*
X138553000Y-108716000D01*
X137163000Y-101841000D02*
X137163000Y-108716000D01*
X138553000Y-101841000D02*
X138553000Y-108716000D01*
X137163000Y-101841000D02*
X137249724Y-101841000D01*
X138466276Y-101841000D02*
X138553000Y-101841000D01*
X137163000Y-101156000D02*
X137163000Y-100471000D01*
X137163000Y-100471000D02*
X137858000Y-100471000D01*
X153915000Y-108189000D02*
X154215507Y-108189000D01*
X155004493Y-108189000D02*
X155305000Y-108189000D01*
X153915000Y-107314000D02*
X153915000Y-108189000D01*
X155305000Y-107314000D02*
X155305000Y-108189000D01*
X153915000Y-107314000D02*
X154001724Y-107314000D01*
X155218276Y-107314000D02*
X155305000Y-107314000D01*
X153915000Y-106629000D02*
X153915000Y-105944000D01*
X153915000Y-105944000D02*
X154610000Y-105944000D01*
X155800000Y-101494000D02*
X155800000Y-100994000D01*
X154740000Y-100994000D02*
X154740000Y-101494000D01*
X140902000Y-100435000D02*
X140402000Y-100435000D01*
X140402000Y-101495000D02*
X140902000Y-101495000D01*
X140902000Y-101642000D02*
X140402000Y-101642000D01*
X140402000Y-102702000D02*
X140902000Y-102702000D01*
X140966000Y-102975000D02*
X140466000Y-102975000D01*
X140466000Y-104035000D02*
X140966000Y-104035000D01*
X140966000Y-105159000D02*
X140466000Y-105159000D01*
X140466000Y-106219000D02*
X140966000Y-106219000D01*
X144243000Y-107750000D02*
X143743000Y-107750000D01*
X143743000Y-108810000D02*
X144243000Y-108810000D01*
X146148000Y-107826000D02*
X145648000Y-107826000D01*
X145648000Y-108886000D02*
X146148000Y-108886000D01*
X148357000Y-107953000D02*
X147857000Y-107953000D01*
X147857000Y-109013000D02*
X148357000Y-109013000D01*
X150491000Y-108030000D02*
X149991000Y-108030000D01*
X149991000Y-109090000D02*
X150491000Y-109090000D01*
D11*
X146368095Y-98720381D02*
X146368095Y-99529905D01*
X146415714Y-99625143D01*
X146463333Y-99672762D01*
X146558571Y-99720381D01*
X146749048Y-99720381D01*
X146844286Y-99672762D01*
X146891905Y-99625143D01*
X146939524Y-99529905D01*
X146939524Y-98720381D01*
X147939524Y-99720381D02*
X147368095Y-99720381D01*
X147653809Y-99720381D02*
X147653809Y-98720381D01*
X147558571Y-98863238D01*
X147463333Y-98958476D01*
X147368095Y-99006095D01*
X154544334Y-105259143D02*
X154496715Y-105306762D01*
X154353858Y-105354381D01*
X154258620Y-105354381D01*
X154115762Y-105306762D01*
X154020524Y-105211524D01*
X153972905Y-105116286D01*
X153925286Y-104925810D01*
X153925286Y-104782952D01*
X153972905Y-104592476D01*
X154020524Y-104497238D01*
X154115762Y-104402000D01*
X154258620Y-104354381D01*
X154353858Y-104354381D01*
X154496715Y-104402000D01*
X154544334Y-104449619D01*
X155496715Y-105354381D02*
X154925286Y-105354381D01*
X155211000Y-105354381D02*
X155211000Y-104354381D01*
X155115762Y-104497238D01*
X155020524Y-104592476D01*
X154925286Y-104640095D01*
X155119143Y-101410666D02*
X155166762Y-101458285D01*
X155214381Y-101601142D01*
X155214381Y-101696380D01*
X155166762Y-101839238D01*
X155071524Y-101934476D01*
X154976286Y-101982095D01*
X154785810Y-102029714D01*
X154642952Y-102029714D01*
X154452476Y-101982095D01*
X154357238Y-101934476D01*
X154262000Y-101839238D01*
X154214381Y-101696380D01*
X154214381Y-101601142D01*
X154262000Y-101458285D01*
X154309619Y-101410666D01*
X154309619Y-101029714D02*
X154262000Y-100982095D01*
X154214381Y-100886857D01*
X154214381Y-100648761D01*
X154262000Y-100553523D01*
X154309619Y-100505904D01*
X154404857Y-100458285D01*
X154500095Y-100458285D01*
X154642952Y-100505904D01*
X155214381Y-101077333D01*
X155214381Y-100458285D01*
X137524667Y-99048381D02*
X137524667Y-99762667D01*
X137477047Y-99905524D01*
X137381809Y-100000762D01*
X137238952Y-100048381D01*
X137143714Y-100048381D01*
X138524667Y-100048381D02*
X137953238Y-100048381D01*
X138238952Y-100048381D02*
X138238952Y-99048381D01*
X138143714Y-99191238D01*
X138048476Y-99286476D01*
X137953238Y-99334095D01*
X154276667Y-104521381D02*
X154276667Y-105235667D01*
X154229047Y-105378524D01*
X154133809Y-105473762D01*
X153990952Y-105521381D01*
X153895714Y-105521381D01*
X154705238Y-104616619D02*
X154752857Y-104569000D01*
X154848095Y-104521381D01*
X155086191Y-104521381D01*
X155181429Y-104569000D01*
X155229048Y-104616619D01*
X155276667Y-104711857D01*
X155276667Y-104807095D01*
X155229048Y-104949952D01*
X154657619Y-105521381D01*
X155276667Y-105521381D01*
X157072381Y-101410666D02*
X156596190Y-101744000D01*
X157072381Y-101982095D02*
X156072381Y-101982095D01*
X156072381Y-101601142D01*
X156120000Y-101505904D01*
X156167619Y-101458285D01*
X156262857Y-101410666D01*
X156405714Y-101410666D01*
X156500952Y-101458285D01*
X156548571Y-101505904D01*
X156596190Y-101601142D01*
X156596190Y-101982095D01*
X157072381Y-100458285D02*
X157072381Y-101029714D01*
X157072381Y-100744000D02*
X156072381Y-100744000D01*
X156215238Y-100839238D01*
X156310476Y-100934476D01*
X156358095Y-101029714D01*
X140485334Y-100067381D02*
X140152000Y-99591190D01*
X139913905Y-100067381D02*
X139913905Y-99067381D01*
X140294858Y-99067381D01*
X140390096Y-99115000D01*
X140437715Y-99162619D01*
X140485334Y-99257857D01*
X140485334Y-99400714D01*
X140437715Y-99495952D01*
X140390096Y-99543571D01*
X140294858Y-99591190D01*
X139913905Y-99591190D01*
X140866286Y-99162619D02*
X140913905Y-99115000D01*
X141009143Y-99067381D01*
X141247239Y-99067381D01*
X141342477Y-99115000D01*
X141390096Y-99162619D01*
X141437715Y-99257857D01*
X141437715Y-99353095D01*
X141390096Y-99495952D01*
X140818667Y-100067381D01*
X141437715Y-100067381D01*
X140485334Y-101274381D02*
X140152000Y-100798190D01*
X139913905Y-101274381D02*
X139913905Y-100274381D01*
X140294858Y-100274381D01*
X140390096Y-100322000D01*
X140437715Y-100369619D01*
X140485334Y-100464857D01*
X140485334Y-100607714D01*
X140437715Y-100702952D01*
X140390096Y-100750571D01*
X140294858Y-100798190D01*
X139913905Y-100798190D01*
X140818667Y-100274381D02*
X141437715Y-100274381D01*
X141104381Y-100655333D01*
X141247239Y-100655333D01*
X141342477Y-100702952D01*
X141390096Y-100750571D01*
X141437715Y-100845810D01*
X141437715Y-101083905D01*
X141390096Y-101179143D01*
X141342477Y-101226762D01*
X141247239Y-101274381D01*
X140961524Y-101274381D01*
X140866286Y-101226762D01*
X140818667Y-101179143D01*
X140549334Y-102607381D02*
X140216000Y-102131190D01*
X139977905Y-102607381D02*
X139977905Y-101607381D01*
X140358858Y-101607381D01*
X140454096Y-101655000D01*
X140501715Y-101702619D01*
X140549334Y-101797857D01*
X140549334Y-101940714D01*
X140501715Y-102035952D01*
X140454096Y-102083571D01*
X140358858Y-102131190D01*
X139977905Y-102131190D01*
X141406477Y-101940714D02*
X141406477Y-102607381D01*
X141168381Y-101559762D02*
X140930286Y-102274048D01*
X141549334Y-102274048D01*
X140549334Y-104791381D02*
X140216000Y-104315190D01*
X139977905Y-104791381D02*
X139977905Y-103791381D01*
X140358858Y-103791381D01*
X140454096Y-103839000D01*
X140501715Y-103886619D01*
X140549334Y-103981857D01*
X140549334Y-104124714D01*
X140501715Y-104219952D01*
X140454096Y-104267571D01*
X140358858Y-104315190D01*
X139977905Y-104315190D01*
X141454096Y-103791381D02*
X140977905Y-103791381D01*
X140930286Y-104267571D01*
X140977905Y-104219952D01*
X141073143Y-104172333D01*
X141311239Y-104172333D01*
X141406477Y-104219952D01*
X141454096Y-104267571D01*
X141501715Y-104362810D01*
X141501715Y-104600905D01*
X141454096Y-104696143D01*
X141406477Y-104743762D01*
X141311239Y-104791381D01*
X141073143Y-104791381D01*
X140977905Y-104743762D01*
X140930286Y-104696143D01*
X143826334Y-107382381D02*
X143493000Y-106906190D01*
X143254905Y-107382381D02*
X143254905Y-106382381D01*
X143635858Y-106382381D01*
X143731096Y-106430000D01*
X143778715Y-106477619D01*
X143826334Y-106572857D01*
X143826334Y-106715714D01*
X143778715Y-106810952D01*
X143731096Y-106858571D01*
X143635858Y-106906190D01*
X143254905Y-106906190D01*
X144683477Y-106382381D02*
X144493000Y-106382381D01*
X144397762Y-106430000D01*
X144350143Y-106477619D01*
X144254905Y-106620476D01*
X144207286Y-106810952D01*
X144207286Y-107191905D01*
X144254905Y-107287143D01*
X144302524Y-107334762D01*
X144397762Y-107382381D01*
X144588239Y-107382381D01*
X144683477Y-107334762D01*
X144731096Y-107287143D01*
X144778715Y-107191905D01*
X144778715Y-106953810D01*
X144731096Y-106858571D01*
X144683477Y-106810952D01*
X144588239Y-106763333D01*
X144397762Y-106763333D01*
X144302524Y-106810952D01*
X144254905Y-106858571D01*
X144207286Y-106953810D01*
X145731334Y-107458381D02*
X145398000Y-106982190D01*
X145159905Y-107458381D02*
X145159905Y-106458381D01*
X145540858Y-106458381D01*
X145636096Y-106506000D01*
X145683715Y-106553619D01*
X145731334Y-106648857D01*
X145731334Y-106791714D01*
X145683715Y-106886952D01*
X145636096Y-106934571D01*
X145540858Y-106982190D01*
X145159905Y-106982190D01*
X146064667Y-106458381D02*
X146731334Y-106458381D01*
X146302762Y-107458381D01*
X147940334Y-107585381D02*
X147607000Y-107109190D01*
X147368905Y-107585381D02*
X147368905Y-106585381D01*
X147749858Y-106585381D01*
X147845096Y-106633000D01*
X147892715Y-106680619D01*
X147940334Y-106775857D01*
X147940334Y-106918714D01*
X147892715Y-107013952D01*
X147845096Y-107061571D01*
X147749858Y-107109190D01*
X147368905Y-107109190D01*
X148511762Y-107013952D02*
X148416524Y-106966333D01*
X148368905Y-106918714D01*
X148321286Y-106823476D01*
X148321286Y-106775857D01*
X148368905Y-106680619D01*
X148416524Y-106633000D01*
X148511762Y-106585381D01*
X148702239Y-106585381D01*
X148797477Y-106633000D01*
X148845096Y-106680619D01*
X148892715Y-106775857D01*
X148892715Y-106823476D01*
X148845096Y-106918714D01*
X148797477Y-106966333D01*
X148702239Y-107013952D01*
X148511762Y-107013952D01*
X148416524Y-107061571D01*
X148368905Y-107109190D01*
X148321286Y-107204429D01*
X148321286Y-107394905D01*
X148368905Y-107490143D01*
X148416524Y-107537762D01*
X148511762Y-107585381D01*
X148702239Y-107585381D01*
X148797477Y-107537762D01*
X148845096Y-107490143D01*
X148892715Y-107394905D01*
X148892715Y-107204429D01*
X148845096Y-107109190D01*
X148797477Y-107061571D01*
X148702239Y-107013952D01*
X150074334Y-107662381D02*
X149741000Y-107186190D01*
X149502905Y-107662381D02*
X149502905Y-106662381D01*
X149883858Y-106662381D01*
X149979096Y-106710000D01*
X150026715Y-106757619D01*
X150074334Y-106852857D01*
X150074334Y-106995714D01*
X150026715Y-107090952D01*
X149979096Y-107138571D01*
X149883858Y-107186190D01*
X149502905Y-107186190D01*
X150550524Y-107662381D02*
X150741000Y-107662381D01*
X150836239Y-107614762D01*
X150883858Y-107567143D01*
X150979096Y-107424286D01*
X151026715Y-107233810D01*
X151026715Y-106852857D01*
X150979096Y-106757619D01*
X150931477Y-106710000D01*
X150836239Y-106662381D01*
X150645762Y-106662381D01*
X150550524Y-106710000D01*
X150502905Y-106757619D01*
X150455286Y-106852857D01*
X150455286Y-107090952D01*
X150502905Y-107186190D01*
X150550524Y-107233810D01*
X150645762Y-107281429D01*
X150836239Y-107281429D01*
X150931477Y-107233810D01*
X150979096Y-107186190D01*
X151026715Y-107090952D01*
M02*
