G04 #@! TF.FileFunction,Soldermask,Top*
%FSLAX46Y46*%
G04 Gerber Fmt 4.6, Leading zero omitted, Abs format (unit mm)*
G04 Created by KiCad (PCBNEW 4.0.7) date 04/15/20 11:27:54*
%MOMM*%
%LPD*%
G01*
G04 APERTURE LIST*
%ADD10C,0.100000*%
%ADD11R,1.850000X0.850000*%
%ADD12R,3.400000X4.600000*%
%ADD13R,1.000000X0.900000*%
%ADD14R,0.900000X1.000000*%
%ADD15R,1.250000X1.250000*%
%ADD16O,1.250000X1.250000*%
%ADD17R,1.000000X0.800000*%
%ADD18R,0.800000X1.000000*%
G04 APERTURE END LIST*
D10*
D11*
X144180000Y-100643000D03*
X144180000Y-101293000D03*
X144180000Y-101943000D03*
X144180000Y-102593000D03*
X144180000Y-103243000D03*
X144180000Y-103893000D03*
X144180000Y-104543000D03*
X144180000Y-105193000D03*
X144180000Y-105843000D03*
X144180000Y-106493000D03*
X150080000Y-106493000D03*
X150080000Y-105843000D03*
X150080000Y-105193000D03*
X150080000Y-104543000D03*
X150080000Y-103893000D03*
X150080000Y-103243000D03*
X150080000Y-102593000D03*
X150080000Y-101943000D03*
X150080000Y-101293000D03*
X150080000Y-100643000D03*
D12*
X147130000Y-103568000D03*
D13*
X155261000Y-103632000D03*
X154161000Y-103632000D03*
D14*
X153492000Y-100694000D03*
X153492000Y-101794000D03*
D15*
X137858000Y-101156000D03*
D16*
X137858000Y-102156000D03*
X137858000Y-103156000D03*
X137858000Y-104156000D03*
X137858000Y-105156000D03*
X137858000Y-106156000D03*
X137858000Y-107156000D03*
X137858000Y-108156000D03*
D15*
X154610000Y-106629000D03*
D16*
X154610000Y-107629000D03*
D17*
X155270000Y-100794000D03*
X155270000Y-101694000D03*
D18*
X140202000Y-100965000D03*
X141102000Y-100965000D03*
X140202000Y-102172000D03*
X141102000Y-102172000D03*
X140266000Y-103505000D03*
X141166000Y-103505000D03*
X140266000Y-105689000D03*
X141166000Y-105689000D03*
X143543000Y-108280000D03*
X144443000Y-108280000D03*
X145448000Y-108356000D03*
X146348000Y-108356000D03*
X147657000Y-108483000D03*
X148557000Y-108483000D03*
X149791000Y-108560000D03*
X150691000Y-108560000D03*
M02*
